<svg width="19" height="20" viewBox="0 0 19 20"  xmlns="http://www.w3.org/2000/svg">
<path d="M19 10V17.3889C19 17.9488 18.7776 18.4858 18.3817 18.8817C17.9858 19.2776 17.4488 19.5 16.8889 19.5H2.11111C1.55121 19.5 1.01424 19.2776 0.61833 18.8817C0.22242 18.4858 0 17.9488 0 17.3889V10H19ZM13.7222 0.5C14.0022 0.5 14.2707 0.61121 14.4686 0.809165C14.6666 1.00712 14.7778 1.2756 14.7778 1.55556V2.61111H16.8889C17.4488 2.61111 17.9858 2.83353 18.3817 3.22944C18.7776 3.62535 19 4.16232 19 4.72222V7.88889H0V4.72222C0 4.16232 0.22242 3.62535 0.61833 3.22944C1.01424 2.83353 1.55121 2.61111 2.11111 2.61111H4.22222V1.55556C4.22222 1.2756 4.33343 1.00712 4.53139 0.809165C4.72934 0.61121 4.99783 0.5 5.27778 0.5C5.55773 0.5 5.82621 0.61121 6.02417 0.809165C6.22212 1.00712 6.33333 1.2756 6.33333 1.55556V2.61111H12.6667V1.55556C12.6667 1.2756 12.7779 1.00712 12.9758 0.809165C13.1738 0.61121 13.4423 0.5 13.7222 0.5Z" />
</svg>
