<svg width="17" height="20" viewBox="0 0 17 20"  xmlns="http://www.w3.org/2000/svg">
<path d="M8.48674 0.697266C8.21052 0.697266 7.93425 0.759165 7.72029 0.882964L0.888417 4.83486C0.460399 5.08246 0.460399 5.47398 0.888417 5.72158L7.72029 9.67347C8.14831 9.92107 8.82513 9.92107 9.2531 9.67347L16.085 5.72158C16.513 5.47402 16.513 5.08246 16.085 4.83491L9.2531 0.883008C9.03909 0.75912 8.76292 0.697266 8.48674 0.697266ZM8.44989 3.07261C8.85299 3.07695 9.21544 3.1693 9.53715 3.34954C9.7572 3.4729 9.90134 3.61356 9.96946 3.77166C10.0353 3.92851 10.0392 4.13527 9.98109 4.39177L9.90953 4.64697C9.86212 4.82958 9.85228 4.96094 9.88001 5.041C9.9055 5.11989 9.9687 5.18761 10.0697 5.24423L10.2214 5.32912L8.73492 6.16189L8.56975 6.06945C8.38557 5.96631 8.26812 5.84976 8.21718 5.7197C8.16405 5.58843 8.1729 5.37965 8.24375 5.09333L8.31191 4.83625C8.35158 4.68315 8.35543 4.55761 8.32354 4.45975C8.29433 4.36028 8.22809 4.28161 8.12478 4.22374C7.96757 4.13563 7.77923 4.10405 7.5599 4.12879C7.33825 4.15231 7.10943 4.23022 6.87338 4.36248C6.651 4.48703 6.44907 4.64299 6.26735 4.8303C6.08344 5.01644 5.92565 5.22942 5.79385 5.46933L4.7361 4.87663C4.97395 4.6378 5.20764 4.42894 5.43721 4.2499C5.66683 4.071 5.90924 3.90999 6.16453 3.76687C6.83433 3.39163 7.45721 3.16845 8.03314 3.09747C8.17136 3.07971 8.31054 3.07143 8.44989 3.07261ZM10.72 5.60851L11.9193 6.28046L10.4329 7.11324L9.23351 6.44134L10.72 5.60851ZM0.432222 6.47018C0.174919 6.46325 0 6.66411 0 7.01941V14.0724C0 14.5667 0.338568 15.153 0.766586 15.4002L7.33802 19.1951C7.76604 19.4422 8.10461 19.2468 8.10461 18.7525V11.6994C8.10461 11.2051 7.76604 10.6189 7.33802 10.3716L0.766586 6.57685C0.646276 6.50731 0.532898 6.47287 0.432222 6.47018ZM16.5678 6.47027C16.4671 6.47296 16.3539 6.5074 16.2335 6.57694L9.66184 10.3717C9.23382 10.6189 8.89526 11.2053 8.89526 11.6996V18.7527C8.89526 19.2469 9.23382 19.4423 9.66184 19.1951L16.2335 15.4004C16.6616 15.1532 17 14.5669 17 14.0726V7.0195C17 6.66429 16.8251 6.46339 16.5678 6.47027ZM2.18669 9.32158C2.47978 9.38267 2.74745 9.45745 2.98968 9.54578C3.23251 9.63443 3.46716 9.74405 3.69097 9.87339C4.28192 10.2146 4.73244 10.6035 5.04247 11.0399C5.3525 11.4737 5.50752 11.9365 5.50752 12.4282C5.50752 12.6804 5.46034 12.8796 5.36583 13.0259C5.27137 13.1695 5.11027 13.2902 4.88262 13.3879L4.65005 13.4738C4.48538 13.5382 4.37754 13.6047 4.32669 13.6732C4.27584 13.7391 4.25044 13.8299 4.25044 13.9457V14.1194L2.93888 13.3621V13.1729C2.93888 12.9618 2.97877 12.7983 3.05874 12.6823C3.13866 12.5637 3.30705 12.4524 3.56377 12.3483L3.79634 12.2586C3.93441 12.2045 4.03491 12.1364 4.09788 12.0544C4.16318 11.9737 4.19592 11.8742 4.19592 11.7558C4.19592 11.5757 4.13777 11.4018 4.02149 11.2343C3.9052 11.0642 3.74299 10.919 3.53466 10.7987C3.33845 10.6854 3.1265 10.6068 2.8988 10.5629C2.67115 10.5164 2.43375 10.5068 2.18669 10.534V9.32158ZM14.2419 9.70653C14.3099 9.70653 14.373 9.71391 14.4311 9.72858C14.7412 9.80443 14.8962 10.0882 14.8962 10.5799C14.8962 10.8321 14.849 11.0859 14.7545 11.3412C14.66 11.5939 14.4989 11.9006 14.2713 12.2611L14.0387 12.6155C13.874 12.8702 13.7662 13.0611 13.7154 13.1883C13.6645 13.3129 13.6391 13.4331 13.6391 13.5489V13.7227L12.3275 14.48V14.2908C12.3275 14.0797 12.3675 13.8699 12.4474 13.6616C12.5275 13.4508 12.6957 13.1451 12.9524 12.7446L13.185 12.3864C13.3231 12.1727 13.4236 11.9886 13.4865 11.8338C13.5518 11.6776 13.5846 11.5403 13.5846 11.4219C13.5846 11.2418 13.5264 11.135 13.4102 11.1018C13.294 11.066 13.1316 11.1081 12.9233 11.2283C12.7271 11.3416 12.5153 11.5079 12.2876 11.7268C12.0599 11.9433 11.8225 12.2077 11.5754 12.5202V11.3077C11.8685 11.0304 12.1361 10.7961 12.3783 10.6047C12.6205 10.4134 12.8544 10.2528 13.0795 10.1227C13.5598 9.84544 13.9471 9.70675 14.2419 9.70653ZM2.93883 13.9337L4.25044 14.6909V16.0656L2.93888 15.3084L2.93883 13.9337ZM13.6391 14.2942V15.6688L12.3275 16.426V15.0515L13.6391 14.2942Z" />
</svg>
