<svg width="21" height="20" viewBox="0 0 21 20" xmlns="http://www.w3.org/2000/svg">
<path d="M7.92857 0C9.89875 0 11.7882 0.782651 13.1814 2.17578C14.5745 3.56891 15.3571 5.45839 15.3571 7.42857C15.3571 9.26857 14.6829 10.96 13.5743 12.2629L13.8829 12.5714H14.7857L20.5 18.2857L18.7857 20L13.0714 14.2857V13.3829L12.7629 13.0743C11.4149 14.2249 9.70081 14.857 7.92857 14.8571C5.95839 14.8571 4.06891 14.0745 2.67578 12.6814C1.28265 11.2882 0.5 9.39875 0.5 7.42857C0.5 5.45839 1.28265 3.56891 2.67578 2.17578C4.06891 0.782651 5.95839 0 7.92857 0ZM7.92857 2.28571C5.07143 2.28571 2.78571 4.57143 2.78571 7.42857C2.78571 10.2857 5.07143 12.5714 7.92857 12.5714C10.7857 12.5714 13.0714 10.2857 13.0714 7.42857C13.0714 4.57143 10.7857 2.28571 7.92857 2.28571Z" />
</svg>
